<svg width="128" height="128" viewBox="0 0 128 128" fill="none" xmlns="http://www.w3.org/2000/svg">
<rect width="128" height="128" rx="64" fill="url(#paint0_linear_27_2)"/>
<rect width="128" height="128" rx="64" fill="black" fill-opacity="0.2"/>
<rect x="6.5" y="6.5" width="115" height="115" rx="57.5" fill="url(#paint1_linear_27_2)"/>
<rect x="6.5" y="6.5" width="115" height="115" rx="57.5" fill="black" fill-opacity="0.2"/>
<path d="M63.134 15.5C63.5189 14.8333 64.4811 14.8333 64.866 15.5L106.435 87.5C106.82 88.1667 106.339 89 105.569 89H22.4308C21.661 89 21.1799 88.1667 21.5648 87.5L63.134 15.5Z" fill="url(#paint2_linear_27_2)"/>
<path d="M69.1838 57.7998C69.0929 56.6634 68.6668 55.7771 67.9054 55.1407C67.1554 54.5043 66.0134 54.1862 64.4793 54.1862C63.502 54.1862 62.7009 54.3055 62.0759 54.5441C61.4622 54.7714 61.0077 55.0839 60.7122 55.4816C60.4168 55.8793 60.2634 56.3339 60.252 56.8453C60.2293 57.2657 60.3031 57.6464 60.4736 57.9873C60.6554 58.3168 60.9395 58.618 61.3259 58.8907C61.7122 59.1521 62.2065 59.3907 62.8088 59.6066C63.4111 59.8225 64.127 60.0157 64.9565 60.1862L67.8202 60.7998C69.752 61.2089 71.4054 61.7487 72.7804 62.4191C74.1554 63.0896 75.2804 63.8794 76.1554 64.7884C77.0304 65.6862 77.6724 66.6975 78.0815 67.8225C78.502 68.9475 78.7179 70.1748 78.7293 71.5043C78.7179 73.7998 78.144 75.743 77.0077 77.3339C75.8713 78.9248 74.2463 80.135 72.1327 80.9646C70.0304 81.7941 67.502 82.2089 64.5474 82.2089C61.5134 82.2089 58.8656 81.76 56.6043 80.8623C54.3543 79.9646 52.6043 78.5839 51.3543 76.7203C50.1156 74.8453 49.4906 72.4475 49.4793 69.5271H58.4793C58.5361 70.5953 58.8031 71.493 59.2804 72.2203C59.7577 72.9475 60.4281 73.4987 61.2918 73.8737C62.1668 74.2487 63.2065 74.4362 64.4111 74.4362C65.4224 74.4362 66.269 74.3112 66.9509 74.0612C67.6327 73.8112 68.1497 73.4646 68.502 73.0214C68.8543 72.5782 69.0361 72.0725 69.0474 71.5043C69.0361 70.9703 68.8599 70.5043 68.519 70.1066C68.1895 69.6975 67.644 69.3339 66.8827 69.0157C66.1213 68.6862 65.0929 68.3793 63.7974 68.0953L60.3202 67.3453C57.2293 66.6748 54.7918 65.5555 53.0077 63.9873C51.2349 62.4078 50.3543 60.2543 50.3656 57.5271C50.3543 55.3112 50.9452 53.3737 52.1384 51.7146C53.3429 50.0441 55.0077 48.743 57.1327 47.8112C59.269 46.8793 61.7179 46.4134 64.4793 46.4134C67.2974 46.4134 69.7349 46.885 71.7918 47.8282C73.8486 48.7714 75.4338 50.1009 76.5474 51.8169C77.6724 53.5214 78.2406 55.5157 78.252 57.7998H69.1838Z" fill="white"/>
<defs>
<linearGradient id="paint0_linear_27_2" x1="64" y1="0" x2="64" y2="128" gradientUnits="userSpaceOnUse">
<stop stop-color="#6366F1"/>
<stop offset="0.6" stop-color="#9C43F5"/>
<stop offset="0.97" stop-color="#EC4899"/>
</linearGradient>
<linearGradient id="paint1_linear_27_2" x1="64" y1="6.5" x2="64" y2="121.5" gradientUnits="userSpaceOnUse">
<stop offset="0.791" stop-color="#131F40"/>
<stop offset="1" stop-color="#030712"/>
</linearGradient>
<linearGradient id="paint2_linear_27_2" x1="64" y1="14" x2="39.2004" y2="84.3875" gradientUnits="userSpaceOnUse">
<stop stop-color="#6366F1"/>
<stop offset="0.411" stop-color="#A855F7"/>
<stop offset="0.975" stop-color="#EF4444"/>
</linearGradient>
</defs>
</svg>
