<svg width="48" height="48" viewBox="0 0 48 48" fill="none" xmlns="http://www.w3.org/2000/svg">
<rect width="48" height="48" rx="24" fill="url(#paint0_linear_30_17)"/>
<rect width="48" height="48" rx="24" fill="black" fill-opacity="0.2"/>
<rect x="2.4375" y="2.4375" width="43.125" height="43.125" rx="21.5625" fill="url(#paint1_linear_30_17)"/>
<rect x="2.4375" y="2.4375" width="43.125" height="43.125" rx="21.5625" fill="black" fill-opacity="0.2"/>
<path d="M23.134 6.75C23.5189 6.08333 24.4811 6.08333 24.866 6.75L39.372 31.875C39.7569 32.5417 39.2757 33.375 38.5059 33.375H9.49407C8.72427 33.375 8.24315 32.5417 8.62805 31.875L23.134 6.75Z" fill="url(#paint2_linear_30_17)"/>
<path d="M26.1558 21.0498C26.1179 20.5763 25.9403 20.207 25.6231 19.9418C25.3106 19.6767 24.8347 19.5441 24.1955 19.5441C23.7883 19.5441 23.4545 19.5938 23.1941 19.6933C22.9384 19.788 22.749 19.9182 22.6259 20.0839C22.5028 20.2496 22.4389 20.439 22.4342 20.6521C22.4247 20.8273 22.4555 20.9859 22.5265 21.1279C22.6022 21.2652 22.7206 21.3907 22.8816 21.5043C23.0426 21.6133 23.2486 21.7127 23.4995 21.8026C23.7505 21.8926 24.0487 21.9731 24.3944 22.0441L25.5876 22.2998C26.3925 22.4703 27.0814 22.6952 27.6543 22.9745C28.2272 23.2539 28.696 23.5829 29.0606 23.9617C29.4252 24.3358 29.6927 24.7572 29.8631 25.2259C30.0383 25.6947 30.1283 26.2061 30.133 26.76C30.1283 27.7165 29.8892 28.5261 29.4157 29.189C28.9422 29.8519 28.2651 30.3561 27.3844 30.7018C26.5085 31.0474 25.455 31.2203 24.2239 31.2203C22.9597 31.2203 21.8565 31.0332 20.9143 30.6592C19.9768 30.2851 19.2476 29.7098 18.7268 28.9333C18.2107 28.1521 17.9503 27.153 17.9455 25.9362H21.6955C21.7192 26.3812 21.8305 26.7553 22.0293 27.0583C22.2282 27.3614 22.5076 27.591 22.8674 27.7472C23.232 27.9035 23.6652 27.9816 24.1671 27.9816C24.5885 27.9816 24.9413 27.9295 25.2254 27.8254C25.5094 27.7212 25.7249 27.5768 25.8717 27.3921C26.0184 27.2075 26.0942 26.9968 26.0989 26.76C26.0942 26.5375 26.0208 26.3434 25.8788 26.1776C25.7415 26.0072 25.5142 25.8557 25.1969 25.7231C24.8797 25.5858 24.4512 25.4579 23.9114 25.3396L22.4626 25.0271C21.1747 24.7477 20.1591 24.2813 19.4157 23.6279C18.6771 22.9698 18.3101 22.0725 18.3148 20.9362C18.3101 20.0129 18.5563 19.2056 19.0535 18.5143C19.5554 17.8183 20.249 17.2761 21.1344 16.8879C22.0246 16.4996 23.045 16.3055 24.1955 16.3055C25.3698 16.3055 26.3854 16.502 27.2424 16.895C28.0994 17.288 28.7599 17.8419 29.2239 18.5569C29.6927 19.2671 29.9294 20.0981 29.9342 21.0498H26.1558Z" fill="white"/>
<defs>
<linearGradient id="paint0_linear_30_17" x1="24" y1="0" x2="24" y2="48" gradientUnits="userSpaceOnUse">
<stop stop-color="#6366F1"/>
<stop offset="0.6" stop-color="#9C43F5"/>
<stop offset="0.97" stop-color="#EC4899"/>
</linearGradient>
<linearGradient id="paint1_linear_30_17" x1="24" y1="2.4375" x2="24" y2="45.5625" gradientUnits="userSpaceOnUse">
<stop offset="0.791" stop-color="#131F40"/>
<stop offset="1" stop-color="#030712"/>
</linearGradient>
<linearGradient id="paint2_linear_30_17" x1="24" y1="5.25" x2="14.7001" y2="31.6453" gradientUnits="userSpaceOnUse">
<stop stop-color="#6366F1"/>
<stop offset="0.411" stop-color="#A855F7"/>
<stop offset="0.975" stop-color="#EF4444"/>
</linearGradient>
</defs>
</svg>
